# xmcd CD database file
#
# Track frame offsets:
#	150
#	28875
#	53625
#	79575
#	98325
#	118725
#	130575
#	146700
#	178725
#	194100
#	209400
#	222525
#	237900
#	254475
#	264525
#	284625
#	300000
#
# Disc length: 4334 seconds
#
# Revision: 1
# Processed by: cddbd v1.5.1PL2 Copyright (c) Steve Scherf et al.
# Submitted via: freeDBTagger 0.8.2.1
#
DISCID=0010ec11
DTITLE=Pink Floyd - Legendary Rock Stars Greatest Hits
DYEAR=1999
DGENRE=rock
TTITLE0=Money
TTITLE1=Summer 68
TTITLE2=One Of These Days
TTITLE3=Free Your
TTITLE4=See Saw
TTITLE5=Julia Dream
TTITLE6=On The Run
TTITLE7=Time
TTITLE8=Paintbox
TTITLE9=Bike
TTITLE10=Green Is The Colour
TTITLE11=Crying Song
TTITLE12=San Tropez
TTITLE13=More Blues
TTITLE14=If
TTITLE15=The Nile Song
TTITLE16=Let There Be More Light
EXTD=
EXTT0=
EXTT1=
EXTT2=
EXTT3=
EXTT4=
EXTT5=
EXTT6=
EXTT7=
EXTT8=
EXTT9=
EXTT10=
EXTT11=
EXTT12=
EXTT13=
EXTT14=
EXTT15=
EXTT16=
PLAYORDER=
